<svg xmlns="http://www.w3.org/2000/svg" xmlns:xlink="http://www.w3.org/1999/xlink" width="1044" height="347" viewBox="0 0 1044 347">
  <defs>
    <style>
      .cls-1, .cls-2 {
        fill-rule: evenodd;
      }

      .cls-1 {
        fill: url(#linear-gradient);
      }

      .cls-2 {
        fill: #f0efef;
      }
    </style>
    <linearGradient id="linear-gradient" x1="251.75" y1="338.5" x2="251.75" y2="10.5" gradientUnits="userSpaceOnUse">
      <stop offset="0" stop-color="#4f8100"/>
      <stop offset="1" stop-color="#89c200"/>
    </linearGradient>
  </defs>
  <path id="Preenchimento_de_Cor_2_copiar_4" data-name="Preenchimento de Cor 2 copiar 4" class="cls-1" d="M282.1,171.7L421.858,10.513H440.73L300.461,171.7l55.088,69.879h-71.41L262.716,215.56l-22.443,26.014H206.1l12.241-14.282h15.3l29.583-34.175,27.544,34.175h35.195ZM83.173,338.487H62.77l157.1-177.5L165.294,91.1h71.919l20.4,26.523L280.059,91.1h33.664L301.992,105.9H286.18l-28.5,33.664-27.1-33.664H195.387l43.356,55.12Z"/>
  <path id="Preenchimento_de_Cor_5_copiar_5" data-name="Preenchimento de Cor 5 copiar 5" class="cls-2" d="M49.755,338.485H60.212V321.166l26.532-28.585V279.829L49.755,319.693v18.792Zm-40.04,0H20.171v-34.3l18.362,19.3h2.04l20.148-22.026V288.2L39.809,310.021l-17.852-18.25H9.715v46.714Z"/>
  <path id="Preenchimento_de_Cor_5_copiar_4" data-name="Preenchimento de Cor 5 copiar 4" class="cls-2" d="M64.3,91.055h83.651l15.812,22.492H86.743V146.7h99.463c5.057,5.057,11.222,11.732,11.222,11.732s-5.449,5.717-11.222,10.711H86.743V274.728L64.3,298.191V91.055Z"/>
  <path id="capital" class="cls-2" d="M365.064,203.817c-6.827,0-12.95-2.215-17.732-7.163-5.971-6.177-8.6-15.285-8.6-23.72,0-15.993,8.91-30.884,26.333-30.884h68.084a2.868,2.868,0,0,0,2.859-2.86h0a2.868,2.868,0,0,0-2.859-2.86H365.064c-42.735,0-42.735,73.206,0,73.206h68.084a2.867,2.867,0,0,0,2.859-2.859h0a2.868,2.868,0,0,0-2.859-2.86H365.064Zm78.7,1.141a2.859,2.859,0,1,0,4.567,3.442l47.424-62.933a8.581,8.581,0,0,1,13.7,0L556.879,208.4a2.86,2.86,0,1,0,4.568-3.442l-47.424-62.932a14.3,14.3,0,0,0-22.838,0Zm125.511-14.867v16.586a2.86,2.86,0,0,0,5.719,0V190.091a8.6,8.6,0,0,1,8.578-8.579h66.1a22.591,22.591,0,1,0,0-45.182H572.132a2.86,2.86,0,0,0,0,5.72h77.543a16.872,16.872,0,1,1,0,33.743h-66.1A14.321,14.321,0,0,0,569.273,190.091Zm112.64-53.761a2.868,2.868,0,0,0-2.86,2.86v67.487a2.867,2.867,0,0,0,2.86,2.859h0a2.867,2.867,0,0,0,2.859-2.859V139.19a2.868,2.868,0,0,0-2.859-2.86h0Zm61.208,0H694.484a2.869,2.869,0,0,0-2.86,2.86h0a2.869,2.869,0,0,0,2.86,2.86h45.778v64.627a2.867,2.867,0,0,0,2.859,2.859h0a2.868,2.868,0,0,0,2.861-2.859V142.05h45.776a2.869,2.869,0,0,0,2.861-2.86h0a2.869,2.869,0,0,0-2.861-2.86H743.121Zm59.232,68.628a2.859,2.859,0,1,0,4.567,3.442l47.423-62.933a8.582,8.582,0,0,1,13.7,0L915.47,208.4a2.859,2.859,0,1,0,4.567-3.442l-47.423-62.932a14.3,14.3,0,0,0-22.838,0Zm157.562-1.141c-6.827,0-12.949-2.215-17.733-7.163-5.97-6.177-8.6-15.285-8.6-23.72V139.19a2.86,2.86,0,1,0-5.72,0v33.744c0,18.3,10.684,36.6,32.052,36.6H1028a2.86,2.86,0,1,0,0-5.719H959.915Z"/>
</svg>
